# xmcd
#
# Track frame offsets:
#	150
#	15707
#	29572
#	45849
#	57997
#	74172
#	87969
#	106070
#	130829
#	142395
#	161653
#
# Disc length: 2463 seconds
#
# Revision: 0
# Processed by: cddbd v1.5.2PL0 Copyright (c) Steve Scherf et al.
# Submitted via: dBpowerAMP V4.0
#
DISCID=9b099d0b
DTITLE=Edwina Hayes - Pour Me A Drink
DYEAR=2008
DGENRE=Country
TTITLE0=Run
TTITLE1=Leave A Light On For You
TTITLE2=Waltzing's For Dreamers
TTITLE3=Season Of Love
TTITLE4=Call Me
TTITLE5=Pretty Lady
TTITLE6=Pour Me A Drink
TTITLE7=Froggie Went A courting
TTITLE8=I Won't Say Your Name
TTITLE9=Feels Like Home
TTITLE10=Irish Waltz
EXTD=
EXTT0=
EXTT1=
EXTT2=
EXTT3=
EXTT4=
EXTT5=
EXTT6=
EXTT7=
EXTT8=
EXTT9=
EXTT10=
PLAYORDER=
